<svg data-v-0dd9719b="" version="1.0" xmlns="http://www.w3.org/2000/svg" xmlns:xlink="http://www.w3.org/1999/xlink" width="100%" height="100%" viewBox="0 0 340.000000 250.000000" preserveAspectRatio="xMidYMid meet" color-interpolation-filters="sRGB" style="margin: auto;"> <rect data-v-0dd9719b="" x="0" y="0" width="100%" height="100%" fill="#fff" fill-opacity="1" class="background"></rect> <rect data-v-0dd9719b="" x="0" y="0" width="100%" height="100%" fill="url(#watermark)" fill-opacity="1" class="watermarklayer"></rect> <g data-v-0dd9719b="" fill="#ec008c" class="icon-text-wrapper icon-svg-group iconsvg" transform="translate(80.71499633789062,75.64619064331055)"><g class="iconsvg-imagesvg" transform="translate(59.285003662109375,0)"><g><rect fill="#ec008c" fill-opacity="0" stroke-width="2" x="0" y="0" width="60" height="59.96761748655726" class="image-rect"></rect> <svg x="0" y="0" width="60" height="59.96761748655726" filtersec="colorsb1452886200" class="image-svg-svg primary" style="overflow: visible;"><svg xmlns="http://www.w3.org/2000/svg" viewBox="-0.0030582945328205824 0 130.86305236816406 130.79254150390625"><g><g><path d="M123.43 82.75a73.51 73.51 0 0 1-4.68 6.92 72.74 72.74 0 0 1-48.15 28.06 65.74 65.74 0 0 1-14 12.44l.54.08a65.35 65.35 0 0 0 63.07-29 73.7 73.7 0 0 0 2.74-12.56q.38-3 .52-5.89zM96.6 33.62a65.12 65.12 0 0 0-22.59 4 65.2 65.2 0 0 1 11.51 46.2q-.18 1.4-.42 2.77A65.33 65.33 0 0 0 122.93 70a72.87 72.87 0 0 0-14.71-35.33 65.35 65.35 0 0 0-11.62-1zM50.48 6.4a72.55 72.55 0 0 0-17.54 2.15c-1.17.67-2.32 1.38-3.45 2.12a65.68 65.68 0 0 1 11.23 2.55A72.81 72.81 0 0 1 51.51 6.4z" fill="#00aeef"></path><path d="M21.35 106.87a72.67 72.67 0 0 0 11.14 15c1.17.68 2.36 1.32 3.57 1.93a65.94 65.94 0 0 1-3.41-11 73.15 73.15 0 0 1-11.29-5.93zM40.72 13.22a72.92 72.92 0 0 0-23.24 30.4 65.07 65.07 0 0 0 19.7 28.13 65.2 65.2 0 0 1 34.21-33q1.3-.54 2.61-1a65.37 65.37 0 0 0-33.28-24.53zM69.11 0a73.47 73.47 0 0 0-12.24 3.9q-2.75 1.16-5.37 2.5a73.08 73.08 0 0 1 56.71 28.27A65.83 65.83 0 0 1 126 40.61l-.2-.51A65.44 65.44 0 0 0 69.11 0z" fill="#ec008c"></path><path d="M51.5 6.4a72.84 72.84 0 0 0-10.78 6.81A65.38 65.38 0 0 1 74 37.67a65.07 65.07 0 0 1 34.21-3A72.73 72.73 0 0 0 59.84 7a73.5 73.5 0 0 0-8.34-.6z" fill="#2e3192"></path><path d="M37.18 71.75a65.37 65.37 0 0 0-4.54 41.05 72.71 72.71 0 0 0 28 5.6 73.28 73.28 0 0 0 9.93-.68A65.07 65.07 0 0 0 85.1 86.6q-3 .28-6.12.28a65.15 65.15 0 0 1-39.6-13.38q-1.12-.86-2.2-1.75zM130.75 61.55a65.7 65.7 0 0 1-7.83 8.45 72.9 72.9 0 0 1 .51 12.75 72.53 72.53 0 0 0 7.43-17.15c0-1.35 0-2.7-.12-4zM13.73 25.25l-.33.43A65.45 65.45 0 0 0 7 94.82a73.87 73.87 0 0 0 9.5 8.65q2.37 1.81 4.85 3.39a74 74 0 0 1-3.65-7.51 72.72 72.72 0 0 1-.22-55.73 65.93 65.93 0 0 1-3.75-18.37z" fill="#fff200"></path><path d="M122.92 70A65.35 65.35 0 0 1 85.1 86.6a65.06 65.06 0 0 1-14.5 31.13 72.72 72.72 0 0 0 48.16-28.06 73.51 73.51 0 0 0 4.68-6.92 72.9 72.9 0 0 0-.52-12.75z" fill="#00a651"></path><path d="M17.48 43.62a72.72 72.72 0 0 0 .22 55.73 74 74 0 0 0 3.65 7.51 73.07 73.07 0 0 0 11.3 5.93 65.36 65.36 0 0 1 4.54-41.05 65.06 65.06 0 0 1-19.71-28.12z" fill="#ed1c24"></path></g></g></svg></svg> <!----></g></g> <g transform="translate(0,66.96761703491211)"><g data-gra="path-name" fill-rule="" class="tp-name iconsvg-namesvg"><g transform="scale(1)"><g><path d="M22.23-30.61L33.52-30.61 31.59 0.21 22.02 0.63 22.1-15.62 17.78-2.52 14.09-2.52 10.77-14.23 10.73-0.63 1.03-0.34 1.45-29.35 12.24-29.77 16.52-15.87 22.23-30.61ZM52.98-30.06L61.17-1.81 50.76-0.46 49.5-5.21 44.71-5.21 43.66-0.46 32.96-1.51 41.31-29.47 52.98-30.06ZM45.59-11.63L48.74-11.63 47.15-18.93 45.59-11.63ZM62.13-30.27L81.49-30.27Q81.36-28.3 81.26-26.37 81.15-24.43 80.98-22.46L80.98-22.46 72.08-22 71.87-19.35 78.13-19.35 77.67-12.85 71.37-12.64 71.16-9.57 76.37-9.57 80.06-9.57Q79.93-7.26 79.8-4.99 79.66-2.71 79.56-0.42L79.56-0.42 61.46 0 62.13-30.27ZM103.7-11.17L103.7-11.17Q103.7-8.29 102.7-6.14 101.7-3.99 99.97-2.56 98.24-1.13 95.92-0.42 93.6 0.29 90.93 0.29L90.93 0.29Q89.91 0.29 88.68 0.02 87.45-0.25 86.19-0.66 84.93-1.07 83.77-1.54 82.6-2.02 81.7-2.43L81.7-2.43 82.62-11.08Q84.41-10.01 86.58-9.46 88.75-8.9 90.85-8.9L90.85-8.9Q91.25-8.9 91.82-8.93 92.38-8.96 92.9-9.12 93.41-9.28 93.77-9.59 94.12-9.91 94.12-10.5L94.12-10.5Q94.12-10.89 93.87-11.18 93.62-11.46 93.22-11.64 92.82-11.82 92.32-11.91 91.82-12.01 91.33-12.05 90.85-12.09 90.43-12.09 90.01-12.09 89.76-12.09L89.76-12.09Q87.95-12.09 86.47-12.72 84.99-13.35 83.93-14.47 82.87-15.6 82.29-17.14 81.7-18.68 81.7-20.49L81.7-20.49Q81.7-22.96 82.7-24.93 83.69-26.89 85.36-28.26 87.03-29.64 89.19-30.37 91.35-31.11 93.66-31.11L93.66-31.11Q94.69-31.11 95.78-31.04 96.87-30.96 97.96-30.77 99.04-30.58 100.07-30.29 101.09-30 102.02-29.56L102.02-29.56 101.22-21.03Q99.79-21.52 98.23-21.84 96.66-22.17 95.17-22.17L95.17-22.17Q94.9-22.17 94.47-22.16 94.04-22.15 93.57-22.09 93.1-22.04 92.61-21.94 92.13-21.83 91.75-21.65 91.37-21.47 91.14-21.18 90.91-20.89 90.93-20.49L90.93-20.49Q90.96-20.03 91.28-19.74 91.61-19.46 92.12-19.3 92.63-19.14 93.25-19.08 93.87-19.02 94.48-19.01 95.09-19 95.62-19.01 96.14-19.02 96.48-18.98L96.48-18.98Q98.16-18.87 99.5-18.26 100.84-17.65 101.78-16.65 102.71-15.64 103.2-14.24 103.7-12.85 103.7-11.17ZM103.84-29.98L126.72-30.02 126.51-21.12 120.26-20.87 118.66-0.97 109.81-0.5 109.85-20.4 103.59-20.07 103.84-29.98ZM152.48-20.24L152.48-20.24Q152.48-18.6 152.2-17.27 151.91-15.93 151.3-14.82 150.7-13.71 149.73-12.76 148.77-11.82 147.4-10.96L147.4-10.96 152.4-2.06 142.95-0.21 139.72-9.15 137.11-9.07 136.74-0.34 127.71-0.34Q127.82-5.12 127.91-9.87 128-14.61 128.13-19.4L128.13-19.4Q128.17-21.81 128.21-24.18 128.26-26.55 128.38-28.97L128.38-28.97Q129.85-29.51 131.28-29.87 132.71-30.23 134.14-30.43 135.58-30.63 137.06-30.7 138.54-30.77 140.1-30.77L140.1-30.77Q142.49-30.77 144.72-30.11 146.96-29.45 148.68-28.13 150.4-26.81 151.44-24.83 152.48-22.86 152.48-20.24ZM143.08-19.56L143.08-19.56Q143.08-20.45 142.83-21.18 142.59-21.91 142.12-22.45 141.65-22.99 140.95-23.29 140.24-23.59 139.3-23.59L139.3-23.59Q138.88-23.59 138.48-23.54 138.08-23.49 137.7-23.38L137.7-23.38 137.37-15.58 137.87-15.58Q138.77-15.58 139.71-15.81 140.64-16.04 141.39-16.52 142.13-17 142.6-17.76 143.08-18.51 143.08-19.56ZM179.6-14.82L179.6-14.82Q179.6-12.91 179.16-11.14 178.72-9.36 177.89-7.81 177.06-6.26 175.88-4.96 174.69-3.67 173.21-2.75 171.73-1.83 169.99-1.31 168.24-0.8 166.29-0.8L166.29-0.8Q164.4-0.8 162.69-1.28 160.98-1.76 159.49-2.63 158-3.51 156.79-4.73 155.59-5.96 154.74-7.46 153.89-8.96 153.41-10.68 152.94-12.41 152.94-14.27L152.94-14.27Q152.94-16.1 153.38-17.85 153.82-19.61 154.65-21.16 155.48-22.71 156.66-24.01 157.83-25.32 159.29-26.26 160.75-27.2 162.45-27.73 164.15-28.25 166.04-28.25L166.04-28.25Q169.08-28.25 171.59-27.31 174.1-26.37 175.88-24.61 177.65-22.86 178.63-20.37 179.6-17.88 179.6-14.82ZM170.28-14.27L170.28-14.27Q170.28-15.18 170.02-16.03 169.76-16.88 169.25-17.54 168.75-18.2 168-18.61 167.26-19.02 166.29-19.02L166.29-19.02Q165.31-19.02 164.53-18.66 163.75-18.3 163.2-17.69 162.64-17.07 162.35-16.24 162.05-15.41 162.05-14.48L162.05-14.48Q162.05-13.6 162.3-12.72 162.56-11.84 163.06-11.13 163.56-10.41 164.31-9.97 165.05-9.53 166.04-9.53L166.04-9.53Q167.03-9.53 167.81-9.92 168.6-10.31 169.15-10.97 169.69-11.63 169.99-12.49 170.28-13.35 170.28-14.27Z" transform="translate(-1.0299999713897705, 31.110000610351562)"></path></g> <!----> <!----> <!----> <!----> <!----> <!----> <!----></g></g> <!----></g></g><defs v-gra="od"></defs></svg>